<svg xmlns="http://www.w3.org/2000/svg" viewBox="0 0 890.95 214">
    <defs>
        <style>
            .cls-1{
                fill:#0e1d3b;
            }
            
            .cls-2 {
                fill:#ddc000;
            }
            
            .cls-3{
                fill:#d00;
            }
        </style>
    </defs>
    <title>DitDat</title>
    <g id="Layer_12" data-name="Layer 12">
        <path class="cls-1" d="M95,392.41v-214h44.58q50.58,0,70.61,4.69a100.34,100.34,0,0,1,36.25,15.64A88.91,88.91,0,0,1,277.28,235q10.53,22.37,10.52,50.58t-10.52,50.57a91.42,91.42,0,0,1-30.84,36.25,100.48,100.48,0,0,1-35.38,15.2q-19.29,4.82-61.68,4.82H95Zm58-48h9.78q34.47,0,50.1-14.29,15.76-14,15.77-44.49,0-30.33-15.77-44.78t-50.1-14.44H153Z" transform="translate(-95 -178.41)"/>
    </g>
    <g id="Layer_5" data-name="Layer 5">
        <path class="cls-1" d="M835,239V387H786V362.67c-5.94,10.26-13.67,17.78-22.21,22.56s-18.51,7.18-29.92,7.18q-29.7,0-47.26-21.68a75.39,75.39,0,0,1-13.17-25.2,109.36,109.36,0,0,1-4.53-32.67q0-36.33,18.58-57.57t49.75-21.24q16.68,0,28.67,7.2C774,245.86,787,263.16,787,263.16V239Zm-46,73.64q0-17.53-9.21-27.19-9.36-10.23-25.14-10.24t-24.86,10q-9.36,10.23-9.36,27.48,0,17.42,9.36,27.35,8.92,9.79,24.86,9.79,15.78,0,25.07-9.79T789,312.64Z" transform="translate(-95 -178.41)"/>
    </g>
    <g id="Layer_6" data-name="Layer 6">
        <path class="cls-1" d="M470,392.41v-214h44.58q50.58,0,70.6,4.69a100.31,100.31,0,0,1,36.26,15.64A88.91,88.91,0,0,1,652.28,235q10.53,22.37,10.52,50.58t-10.52,50.57a91.42,91.42,0,0,1-30.84,36.25,100.48,100.48,0,0,1-35.38,15.2q-19.29,4.82-61.68,4.82H470Zm58-48h9.78q34.47,0,50.09-14.29,15.78-14,15.78-44.49,0-30.33-15.78-44.78t-50.09-14.44H528Z" transform="translate(-95 -178.41)"/>
    </g>
    <g id="Layer_7" data-name="Layer 7">
        <path class="cls-1" d="M845.71,196.33H898v44h22v37H897.8s.33,49,0,70.35c.69,12.2,25.2,6.1,25.2,6.1v34.57s-10.21,4.06-27.58,4.06c-14.3,0-50,0-49.42-45.75Z" transform="translate(-95 -178.41)"/>
    </g>
    <g id="Layer_8" data-name="Layer 8">
        <path class="cls-1" d="M364.71,196.33H416v44h22v37H416.8s.33,49,0,70.35c.69,12.2,25.2,6.1,25.2,6.1v34.57s-10.21,4.06-27.58,4.06c-14.3,0-50.05,0-49.42-45.75Z" transform="translate(-95 -178.41)"/>
    </g>
    <g id="Layer_9" data-name="Layer 9">
        <path class="cls-1" d="M300,392.41v-148h52v148Zm6.95-186h.29A17.5,17.5,0,0,1,313,192.94a18.77,18.77,0,0,1,13.77-5.72,19.09,19.09,0,0,1,14,5.42,18.52,18.52,0,0,1,5.5,13.77,18.81,18.81,0,0,1-5.72,14.07A19.78,19.78,0,0,1,307,206.41Z" transform="translate(-95 -178.41)"/>
    </g>
    <g id="Layer_10" data-name="Layer 10">
        <path class="cls-2" d="M300.25,206.79A25.23,25.23,0,0,1,326,181q11.32,0,18.78,7.44a24.83,24.83,0,0,1,7.33,18.34q0,11.18-7.33,18.48A26.12,26.12,0,0,1,326,232.84a25.66,25.66,0,0,1-18.39-7.57Q300.26,218,300.25,206.79Z" transform="translate(-95 -178.41)"/>
    </g>
    <g id="Layer_11" data-name="Layer 11">
        <path class="cls-3" d="M934.12,366.37a25.25,25.25,0,0,1,25.73-25.79q11.31,0,18.77,7.45A24.81,24.81,0,0,1,986,366.37q0,11.16-7.33,18.47a26.07,26.07,0,0,1-18.77,7.57,25.63,25.63,0,0,1-18.4-7.57Q934.13,377.54,934.12,366.37Z" transform="translate(-95 -178.41)"/>
    </g>
</svg>