<svg id="Layer_1" data-name="Layer 1" xmlns="http://www.w3.org/2000/svg" viewBox="0 0 1080 1080"><defs><style>.cls-1{fill:#0e1d3b;}.cls-2{fill:#ddc000;}.cls-3{fill:#d00;}</style></defs><title>LogoDitDat</title><path class="cls-1" d="M66.65,739.66V343.54h82.52q93.62,0,130.69,8.68,38.42,8.67,67.1,28.95a164.51,164.51,0,0,1,57.09,67.1q19.49,41.4,19.48,93.61T404.05,635.5Q384.84,676.09,347,702.59a185.9,185.9,0,0,1-65.48,28.14q-35.72,8.92-114.18,8.93H66.65Zm106.87-88.75h18.13q63.85,0,92.81-26.48,29.22-25.95,29.22-82.42,0-56.22-29.22-83t-92.81-26.75H173.52Z"/><path class="cls-1" d="M568.08,739.66V343.54h82.53q93.61,0,130.69,8.68,38.41,8.67,67.1,28.95a164.51,164.51,0,0,1,57.09,67.1Q925,489.67,925,541.88T905.49,635.5q-19.22,40.59-57.09,67.09a186,186,0,0,1-65.48,28.14q-35.71,8.92-114.18,8.93H568.08ZM675,650.91h18.13q63.85,0,92.81-26.48,29.22-25.95,29.22-82.42,0-56.22-29.22-83t-92.81-26.75H675Z"/><path class="cls-2" d="M426.61,394.93q0-23.21,15.42-38.59,15.69-15.66,38.69-15.66,23.8,0,39.51,15.66,15.42,15.39,15.42,38.59,0,23.49-15.42,38.87a54.91,54.91,0,0,1-39.51,15.93q-22.19,0-38.69-15.93Q426.61,418.41,426.61,394.93Z"/><path class="cls-3" d="M928,695.42q0-23.2,15.43-38.59,15.69-15.66,38.69-15.66,23.8,0,39.5,15.66,15.44,15.38,15.43,38.59,0,23.49-15.43,38.87a54.91,54.91,0,0,1-39.5,15.92q-22.18,0-38.69-15.92Q928.05,718.9,928,695.42Z"/></svg>